<svg width="43" height="35" viewBox="0 0 43 35" fill="none" xmlns="http://www.w3.org/2000/svg">
<path fill-rule="evenodd" clip-rule="evenodd" d="M32.2564 34.584V34.6046L31.6723 34.6261L31.7712 34.6193L32.2564 34.584Z" fill="#086631"/>
<path fill-rule="evenodd" clip-rule="evenodd" d="M25.8041 0.000112812C25.8041 0.000112812 28.0591 4.9202 21.2942 5.74032C14.5293 6.56044 10.7029 7.79092 11.249 10.7287C11.7959 13.6666 13.1623 13.8031 13.1623 13.8031C13.1623 13.8031 5.98722 15.7164 5.98722 19.2693C5.98722 22.823 7.69592 22.4128 7.69592 22.4128C7.69592 22.4128 -0.709413 25.624 0.384144 30.6808C1.4777 35.7376 11.4546 35.0546 25.8039 34.8497C40.1532 34.6447 43.8436 32.6636 42.5455 27.9481C41.2467 23.2332 35.4383 22.4128 35.4383 22.4128C35.4383 22.4128 38.7185 20.2261 36.1901 16.7415C33.6617 13.2563 29.6302 13.6664 29.6302 13.6664C29.6302 13.6664 36.5318 10.3185 25.8039 -9.15527e-05L25.8041 0.000112812Z" fill="#8B5F3C"/>
<path fill-rule="evenodd" clip-rule="evenodd" d="M0.292128 29.9871C0.305616 30.0096 2.42447 33.6011 13.9903 33.6011C51.367 35.0341 37.9088 21.8387 32.1575 24.8962L32.1582 24.8949C28.3921 27.1822 21.3393 29.3213 9.91854 22.9817C9.91854 22.9817 25.2803 28.6638 31.2543 22.1566C37.2283 15.6493 27.8099 14.4672 27.8099 14.4672L27.808 14.4666C20.7955 16.7399 13.162 13.8032 13.162 13.8032C27.4766 13.8985 33.9022 12.6821 25.8038 0C30.8844 4.88821 32.0104 8.21118 31.7883 10.3552V10.3558C31.7572 10.6505 31.7022 10.9221 31.6272 11.1735L31.6186 11.2021C31.5906 11.2955 31.5588 11.3858 31.5259 11.4731L31.4905 11.5622C31.3233 11.9729 31.1085 12.3165 30.8833 12.5991L30.8351 12.659L30.7918 12.7115L30.7869 12.717L30.738 12.7726L30.6892 12.827L30.641 12.8789L30.6311 12.8899L30.5921 12.9296L30.5439 12.9784L30.5408 12.9821L30.4963 13.0254L30.4517 13.0681L30.4486 13.0706L30.4016 13.1139L30.3552 13.1554L30.3095 13.195L30.2643 13.2335L30.2204 13.27L30.1967 13.2897L30.177 13.305L30.1349 13.3379L30.0935 13.3689L30.0538 13.3988L30.0422 13.4074L30.0148 13.427L29.9776 13.4538L29.9715 13.4581L29.9416 13.4783L29.9069 13.502L29.9063 13.5026L29.8746 13.5234L29.846 13.5418L29.8429 13.5437L29.8137 13.5621L29.7922 13.5756L29.7861 13.5792L29.7605 13.5952L29.7452 13.6044L29.7373 13.6087L29.7152 13.6215L29.7054 13.6271L29.6962 13.632L29.679 13.6418L29.6729 13.6448L29.6643 13.6497L29.652 13.6559L29.6496 13.6577L29.6428 13.6614L29.6355 13.6645L29.6349 13.6651L29.6312 13.6669L29.63 13.6675H29.6306H29.6318H29.633L29.6373 13.6669H29.6392L29.6416 13.6663H29.6422H29.6453L29.649 13.6657H29.6526L29.6563 13.6651H29.6569H29.6618L29.6667 13.6645L29.6723 13.6638H29.6759H29.6778L29.6839 13.6632L29.6907 13.6626H29.6974L29.7017 13.662H29.7041L29.7121 13.6614L29.7195 13.6608H29.7281L29.7323 13.6602H29.736L29.7452 13.6596L29.7544 13.6589H29.7636L29.7679 13.6583H29.7734L29.7832 13.6577L29.7937 13.6571H29.8047L29.809 13.6565H29.8157C30.6334 13.6254 33.984 13.701 36.1907 16.7426C36.3006 16.8934 36.3981 17.0416 36.4866 17.1881L36.4934 17.1985C36.552 17.2956 36.6062 17.3915 36.6556 17.4865L36.6703 17.5145C36.7668 17.7019 36.8467 17.8838 36.9121 18.062H36.9127C37.0494 18.4356 37.1201 18.7889 37.141 19.1202L37.1416 19.1269L37.1465 19.2314V19.2436C37.1483 19.3254 37.1477 19.4053 37.1441 19.4842V19.4866C37.133 19.7198 37.0977 19.9413 37.0439 20.1494L37.0421 20.1549L37.0073 20.2818L37.003 20.2934C36.9311 20.5297 36.8359 20.7488 36.729 20.9482L36.7241 20.9587L36.7004 21.002L36.6955 21.0106L36.6759 21.0453L36.6515 21.0874L36.6472 21.0942L36.6009 21.1704L36.5978 21.1753L36.5753 21.2106L36.5498 21.2509L36.5473 21.254L36.5236 21.2899L36.4974 21.3284L36.4962 21.3302L36.4713 21.3662L36.4451 21.404H36.4445L36.4184 21.4406L36.3922 21.4753L36.3916 21.4765L36.3648 21.5119L36.3393 21.5442L36.3374 21.5466L36.3107 21.5807L36.2863 21.6106L36.2839 21.6143L36.2571 21.6465L36.2334 21.6745L36.2297 21.6788L36.203 21.7105L36.1809 21.7355L36.176 21.741L36.1492 21.7714L36.1284 21.7945L36.1228 21.8006L36.0961 21.8299L36.0765 21.8507L36.0697 21.8581L36.0252 21.9045L36.0178 21.9124L35.9923 21.9386L35.9751 21.9558L35.9671 21.9643L35.9422 21.9893L35.9262 22.0046L35.917 22.0132L35.8927 22.0369L35.878 22.0504L35.8688 22.0596L35.8451 22.0816L35.8322 22.0939L35.8218 22.1031L35.7993 22.1239L35.7877 22.135L35.7766 22.1442L35.7552 22.1638L35.7442 22.173L35.7337 22.1822L35.7129 22.2006L35.7037 22.2086L35.6927 22.2178L35.673 22.2343L35.6651 22.241L35.654 22.2502L35.635 22.2656L35.6283 22.2711L35.6179 22.2797L35.6007 22.2938L35.5952 22.2981L35.5841 22.3066L35.5682 22.3189L35.5639 22.3226L35.5535 22.3306L35.5394 22.3416L35.5357 22.344L35.5265 22.3514L35.5136 22.3606L35.5112 22.3631L35.502 22.3692L35.4916 22.3772L35.4897 22.379L35.4817 22.3845L35.4726 22.3906L35.4713 22.3919L35.4652 22.3968L35.4578 22.4017L35.4572 22.4023L35.4523 22.4054L35.4474 22.409H35.4468L35.4456 22.4103L35.4407 22.4139L35.4382 22.4152C35.4382 22.4152 41.2469 23.2353 42.5448 27.9504C43.8436 32.6659 40.1531 34.6464 25.8038 34.8514C11.4545 35.0564 1.47704 35.74 0.384092 30.6832C0.33341 30.4475 0.303572 30.2164 0.291924 29.9893L0.292128 29.9871ZM36.4929 17.1975C36.5516 17.2946 36.6051 17.3911 36.6552 17.4855L36.4929 17.1975Z" fill="#6B482A"/>
<path fill-rule="evenodd" clip-rule="evenodd" d="M29.8984 13.6529C29.8984 13.6529 19.0349 21.4351 7.69593 22.4128C7.69593 22.4128 -0.709398 25.6239 0.38416 30.6808C0.777767 32.5019 2.32297 33.5782 4.80989 34.2007C5.06187 34.4576 28.2706 28.4056 36.6698 17.5135C36.5404 17.264 36.3825 17.0063 36.1901 16.7414C34.0517 13.7939 30.8393 13.6326 29.8982 13.6529H29.8984ZM7.69409 22.4128L7.56044 22.4269C7.63605 22.425 7.6849 22.4146 7.69409 22.4128Z" fill="#086631"/>
<path fill-rule="evenodd" clip-rule="evenodd" d="M1.33761 32.4678C10.7913 29.3132 27.3042 22.784 35.6119 16.0363C34.9967 15.3717 34.3248 14.8902 33.6614 14.5423C23.5357 21.0553 7.93288 26.754 0.942168 27.4619C0.390995 28.423 0.129204 29.5021 0.384456 30.6811C0.53589 31.3816 0.857357 31.9718 1.33761 32.468V32.4678Z" fill="#FFFF00"/>
</svg>
